<svg width="412" height="412" viewBox="0 0 412 412" fill="none" xmlns="http://www.w3.org/2000/svg">
<rect width="412" height="412" rx="100" fill="white"/>
<path d="M323.956 124.038C334.023 123.323 344.208 123.878 354.265 123.882C354.827 123.882 355.833 123.735 356.601 124.49L356.691 124.58L356.729 124.701C356.92 125.333 356.832 125.904 356.668 126.405C356.587 126.652 356.485 126.889 356.389 127.107C356.289 127.333 356.196 127.533 356.116 127.737C347.218 150.401 338.349 173.078 329.395 195.722C322.634 212.819 310.754 224.447 292.505 228.667C279.696 231.629 268.286 227.898 257.936 220.452C254.082 217.68 250.622 214.451 247.223 211.203C244.33 208.44 241.398 205.786 238.021 203.685C233.452 200.842 228.751 199.677 224.229 200.133C219.708 200.588 215.325 202.669 211.397 206.388C205.839 211.649 201.615 217.983 196.807 224.003C191.959 230.072 186.558 235.567 179.362 238.974C172.391 242.274 165.658 243.387 159.166 242.492C152.677 241.597 146.464 238.7 140.521 234.035C133.599 228.602 128.369 221.666 123.461 214.552C117.996 206.631 113.172 198.426 107.333 190.84C104.791 187.537 102.006 184.495 98.6279 182.096C93.6093 178.53 88.5075 176.844 83.3496 176.71C78.1867 176.575 72.9344 177.994 67.6211 180.691C66.7448 181.136 65.9536 181.443 65.1895 181.333C64.3923 181.218 63.7643 180.677 63.1426 179.811C60.8308 176.592 58.299 173.547 55.6064 170.108L55.2734 169.683L55.7227 169.385C59.8447 166.637 64.0853 164.616 68.6162 163.268C78.2607 160.4 87.3297 160.37 95.6953 163.16C104.058 165.949 111.681 171.543 118.459 179.862C125.578 188.6 131.238 198.43 137.632 207.57C141.022 212.417 144.645 217.029 149.138 220.852C154.189 225.151 159.399 227.181 164.508 227.019C169.616 226.858 174.699 224.502 179.489 219.88C181.408 218.028 183.086 215.964 185.04 213.801C189.959 207.659 194.424 201.233 200.08 195.832C208.254 188.026 217.712 183.441 229.402 184.434C235.634 184.964 241.241 187.094 246.399 190.497C252.572 194.57 257.742 199.885 263.194 204.66C268.488 209.297 274.163 213.075 281.264 213.698C292.686 214.701 301.464 209.763 308.364 200.96C312.165 196.111 314.325 190.363 316.581 184.589C322.119 170.415 327.636 156.232 333.154 142.05C333.391 141.442 333.583 140.832 333.793 140.187C328.267 139.364 322.893 139.668 318.373 141.474C313.71 143.336 309.932 146.801 307.809 152.337C301.145 169.708 293.933 186.896 287.102 204.185C286.576 205.515 285.962 206.509 285.03 207.055C284.087 207.606 282.933 207.634 281.485 207.308C278.425 206.621 275.591 205.575 272.863 204.054C271.997 203.57 271.401 203.001 271.167 202.243C270.936 201.496 271.095 200.684 271.454 199.804C275.99 188.693 280.441 177.551 284.945 166.423C287.976 158.935 290.922 151.387 294.138 143.961C299.774 130.942 310.558 124.99 323.956 124.038Z" fill="black" stroke="black"/>
<path d="M202.267 124.02C212.995 122.392 223.126 124.545 232.041 131.115C237.085 134.833 240.568 139.713 242.911 145.499C249.046 160.648 255.297 175.747 261.485 190.879C261.599 191.156 261.735 191.374 261.907 191.723C262.216 192.348 262.104 193.025 261.66 193.418C261.44 193.613 261.147 193.723 260.831 193.699C260.554 193.678 260.293 193.558 260.066 193.361L259.973 193.272C254.755 187.99 248.72 183.914 241.86 181.091C241.147 180.797 240.572 180.421 240.102 179.926C239.633 179.432 239.287 178.841 239.005 178.143C235.486 169.438 231.918 160.753 228.297 152.091C226.693 148.255 224.424 145.356 221.551 143.328C218.676 141.3 215.17 140.125 211.063 139.78C207.271 139.462 203.536 139.609 199.946 140.919C194.72 142.826 190.956 146.208 188.808 151.373C179.792 173.049 170.755 194.717 161.733 216.39C161.672 216.536 161.612 216.68 161.554 216.82C160.544 219.233 158.339 220.082 155.968 220.058C153.61 220.033 150.989 219.155 148.889 218.009C145.042 215.909 142.693 212.157 140.57 208.481C138.262 204.484 137.091 202.183 135.639 199.281C134.189 196.385 132.459 192.888 129.029 186.485C123.079 175.378 118.418 163.242 114.074 152.898C112.262 148.584 109.813 145.344 106.685 143.167C103.557 140.991 99.7131 139.851 95.0654 139.799C92.532 139.77 89.9974 139.768 87.4219 139.771C83.3753 139.778 80.6888 143.535 82.2266 147.202C83.0316 149.122 82.824 151.031 81.8594 152.494C80.897 153.954 79.2113 154.926 77.1465 155.046C76.2902 155.096 75.456 155.179 74.6338 155.343C73.2759 155.613 72.217 155.816 71.3779 155.878C70.5337 155.94 69.8356 155.866 69.2344 155.515C68.6381 155.167 68.2134 154.59 67.8135 153.826C67.4142 153.063 67.0035 152.039 66.4746 150.732C63.4651 143.3 60.4235 135.949 57.4092 128.513C57.343 128.349 57.2713 128.185 57.1963 128.018C56.7415 127 56.7453 125.965 57.2227 125.161C57.705 124.349 58.6106 123.876 59.7432 123.873C71.5823 123.845 83.4052 123.892 95.2393 123.841C107.826 123.786 122.728 130.453 128.834 146.741C134.901 162.928 141.681 178.838 148.243 195.075H148.242C148.31 195.242 148.378 195.407 148.445 195.571C149.295 197.66 152.246 197.679 153.108 195.611C160.365 178.206 167.364 160.661 174.981 143.396C180.122 131.745 190.121 125.862 202.267 124.02Z" fill="black" stroke="black"/>
<path d="M82.5084 183.324C86.1592 182.845 89.1912 183.671 91.8385 185.244C98.0249 188.918 103.076 193.945 105.836 200.686C114.003 220.638 121.882 240.719 129.942 260.707C132.715 267.584 138.035 271.361 145.277 272.66C149.199 273.363 153.093 273.236 156.948 272.228C163.177 270.6 167.711 266.992 170.288 261.046C172.016 257.056 173.74 253.066 175.424 249.06C175.908 247.91 176.54 246.946 177.943 246.443C184.786 243.989 190.636 239.999 195.661 234.742C195.784 234.613 195.871 234.505 196.027 234.333C196.165 234.181 196.329 234.011 196.53 233.866C196.957 233.556 197.502 233.385 198.232 233.529L198.713 233.624L198.628 234.106C198.389 235.458 197.936 236.715 197.428 237.918C197.175 238.519 196.905 239.112 196.64 239.695C196.375 240.28 196.116 240.857 195.876 241.436C192.088 250.585 188.44 259.841 184.219 268.82C178.796 280.358 169.077 286.553 156.797 288.499C145.888 290.227 135.599 288.243 126.469 281.582C121.535 277.981 118.11 273.206 115.729 267.713C113.789 263.238 112.088 258.646 110.215 253.953L82.11 184.006L81.8698 183.408L82.5084 183.324Z" fill="black" stroke="black"/>
<path d="M221.331 207.214C222.359 206.689 223.322 206.398 224.192 206.688C225.076 206.982 225.679 207.811 226.159 209.03C230.869 220.996 235.73 232.903 240.551 244.832C242.663 250.058 244.868 255.277 246.929 260.538C250.751 270.287 260.591 273.761 269.298 273.026C274.135 272.617 278.112 271.168 281.272 268.679C284.433 266.19 286.812 262.632 288.41 257.948C290.909 250.622 294.084 243.498 296.908 236.33C297.17 235.664 297.488 235.054 297.948 234.543C298.414 234.027 299.007 233.631 299.788 233.365C305.544 231.4 310.89 228.665 315.631 224.835C315.678 224.797 315.727 224.755 315.783 224.707C315.837 224.66 315.898 224.607 315.961 224.555C316.085 224.452 316.236 224.336 316.412 224.245C316.748 224.069 317.142 223.999 317.594 224.144L317.792 224.22L318.015 224.319L318.074 224.556C318.252 225.273 318.129 225.919 317.928 226.489C317.829 226.771 317.709 227.043 317.594 227.296C317.476 227.555 317.366 227.791 317.272 228.028C312.174 240.963 307.139 253.933 301.893 266.816C296.878 279.132 287.359 285.954 274.319 288.464L274.306 288.466L274.295 288.468C262.708 290.125 252.222 288.009 242.898 280.98C238.168 277.414 234.858 272.796 232.647 267.4C226.022 251.227 219.496 235.026 212.826 218.877C212.344 217.71 212.118 216.646 212.292 215.626C212.467 214.597 213.036 213.688 213.991 212.801C216.227 210.725 218.509 208.655 221.331 207.214Z" fill="black" stroke="black"/>
</svg>
