<svg version="1.1" id="Layer_1" xmlns="http://www.w3.org/2000/svg" xmlns:xlink="http://www.w3.org/1999/xlink" x="0px" y="0px"
	 width="100%" viewBox="0 0 608 608" enable-background="new 0 0 608 608" xml:space="preserve">
<path fill="#000000" opacity="1.000000" stroke="none" 
	d="
M452.975433,381.046082 
	C454.988892,379.869873 456.687531,378.888092 458.355988,377.923767 
	C460.172302,379.636993 458.805817,380.899811 458.220428,382.098999 
	C451.501984,395.862091 444.936493,409.705109 437.931732,423.321777 
	C430.070099,438.604004 417.270782,446.685059 400.071228,446.506073 
	C382.907928,446.327454 370.173889,438.202911 362.663300,422.645721 
	C333.641876,362.531525 304.608276,302.422485 275.875031,242.170456 
	C270.737183,231.396637 259.008453,226.387863 248.771210,233.891556 
	C247.587982,234.758835 246.327072,235.666702 244.597336,235.593445 
	C243.175354,233.660263 244.828094,232.173111 245.538727,230.703506 
	C251.771637,217.813370 258.013702,204.926224 264.420258,192.121857 
	C272.446533,176.080307 285.248199,167.356689 303.474701,167.690430 
	C321.246674,168.015823 333.608124,176.879486 341.216370,192.653320 
	C357.993500,227.436707 374.692230,262.257904 391.446136,297.052551 
	C403.578094,322.248199 415.710846,347.443634 427.916962,372.603363 
	C433.173706,383.438751 442.090881,386.475677 452.975433,381.046082 
z"/>
<path fill="#000000" opacity="1.000000" stroke="none" 
	d="
M230.837982,299.242981 
	C242.842484,324.008484 254.602798,348.477234 266.528168,372.865234 
	C272.055328,384.168549 281.964508,386.837219 292.588776,380.229523 
	C293.966614,379.372589 295.219727,378.170349 297.212738,378.144135 
	C298.256317,380.394287 296.664124,381.976837 295.866425,383.606354 
	C289.349335,396.919556 282.863678,410.250305 276.147430,423.463348 
	C268.401764,438.701691 255.547546,446.621765 238.731613,446.613464 
	C222.332413,446.605347 209.256409,439.067139 201.884750,424.168701 
	C185.339188,390.729492 169.370285,357.004913 153.165192,323.397247 
	C139.853760,295.790741 126.601334,268.155518 113.196182,240.594589 
	C108.181404,230.284241 97.887939,227.404190 88.035255,233.166321 
	C86.250053,234.210327 84.795128,236.031509 82.020798,235.885269 
	C83.142952,230.993362 85.767792,226.934586 87.764778,222.675629 
	C92.713661,212.121170 97.889854,201.667053 103.224144,191.300980 
	C111.370842,175.469559 124.327812,167.240433 142.300629,167.683426 
	C159.460312,168.106354 171.688126,176.599548 179.072983,191.775635 
	C196.416275,227.416519 213.482803,263.192078 230.837982,299.242981 
z"/>
<path fill="#000000" opacity="1.000000" stroke="none" 
	d="
M454.662109,176.596680 
	C477.774658,159.542938 507.547821,167.139832 519.513306,192.801804 
	C523.030151,200.344223 526.652710,207.838638 530.321960,215.308350 
	C533.640869,222.064743 533.534851,228.760086 530.264587,235.456985 
	C523.252319,249.816803 516.224487,264.169037 509.190338,278.518188 
	C505.394073,286.262268 499.222107,290.343811 490.545135,290.480560 
	C481.826172,290.618011 475.523041,286.663727 471.713043,278.919159 
	C465.834381,266.969604 459.662323,255.134201 454.455261,242.892838 
	C449.165039,230.456039 436.069794,226.325180 425.982056,234.423386 
	C425.120667,235.114853 423.944458,235.414169 422.660614,236.014328 
	C421.763000,233.387619 423.255859,231.635941 424.140320,229.828125 
	C429.992279,217.866898 436.014709,205.987915 441.760651,193.976456 
	C444.897949,187.418182 448.782471,181.517456 454.662109,176.596680 
z"/>
</svg>